<svg width="16" height="13" viewBox="0 0 16 13" fill="none" xmlns="http://www.w3.org/2000/svg">
<path fill-rule="evenodd" clip-rule="evenodd" d="M0.5 6.5C0.5 7.73 0.81875 8.14325 1.45625 8.972C2.729 10.625 4.8635 12.5 8 12.5C11.1365 12.5 13.271 10.625 14.5438 8.972C15.1813 8.144 15.5 7.72925 15.5 6.5C15.5 5.27 15.1813 4.85675 14.5438 4.028C13.271 2.375 11.1365 0.5 8 0.5C4.8635 0.5 2.729 2.375 1.45625 4.028C0.81875 4.8575 0.5 5.27075 0.5 6.5ZM8 3.6875C7.25408 3.6875 6.53871 3.98382 6.01126 4.51126C5.48382 5.03871 5.1875 5.75408 5.1875 6.5C5.1875 7.24592 5.48382 7.96129 6.01126 8.48874C6.53871 9.01618 7.25408 9.3125 8 9.3125C8.74592 9.3125 9.46129 9.01618 9.98874 8.48874C10.5162 7.96129 10.8125 7.24592 10.8125 6.5C10.8125 5.75408 10.5162 5.03871 9.98874 4.51126C9.46129 3.98382 8.74592 3.6875 8 3.6875Z" fill="#E24D48"/>
</svg>
