<svg width="33" height="32" viewBox="0 0 33 32" fill="none" xmlns="http://www.w3.org/2000/svg">
<path d="M5.42 12.16C5.30925 12.0411 5.17504 11.9466 5.02585 11.8823C4.87667 11.8181 4.71577 11.7855 4.55333 11.7866C4.00667 11.7866 3.59333 12.04 3.32667 12.56C3.06 13.08 3.12667 13.5733 3.55333 14.04C5.12667 15.4533 6.12667 16.4533 6.55333 17.04C7.1 17.7866 7.36667 18.88 7.36667 20.2933C7.36667 22.04 8.03333 23.3333 9.36667 24.2266C10.1133 24.8133 10.9267 25.2533 11.8333 25.5466V20.36C11.8333 19.1066 11.3933 18.0666 10.5533 17.2266M22.4467 17.2933C21.62 18.12 21.1667 19.1466 21.1667 20.36V25.6C22.4467 25.1466 23.5133 24.44 24.3933 23.5066C25.26 22.5733 25.7 21.5466 25.7 20.2933C25.7 18.7866 25.9533 17.7066 26.46 17.04C26.58 16.8266 26.8067 16.56 27.1667 16.2266C27.4733 15.8933 27.7933 15.5733 28.1133 15.28C28.42 15 28.7267 14.7066 29.02 14.4133L29.46 14.04C29.5792 13.9267 29.6739 13.7901 29.7381 13.6388C29.8023 13.4874 29.8347 13.3244 29.8333 13.16C29.8333 12.7866 29.7133 12.4533 29.46 12.1866C29.2067 11.92 28.9 11.7866 28.5 11.7866C28.1 11.7866 27.8333 11.9066 27.58 12.16M16.5 26.6666C17.42 26.6666 18.3133 26.5466 19.1667 26.2933V21.5333C19.1667 20.7466 18.9267 20.1333 18.38 19.5466C17.8333 18.96 17.2067 18.6666 16.5 18.6666C15.7933 18.6666 15.1667 18.9333 14.66 19.48C14.1267 20 13.8333 20.6133 13.8333 21.4133V26.2933C14.6867 26.5466 15.58 26.6666 16.5 26.6666ZM12.5 11.3333C12.5 12.44 11.6067 13.3333 10.5 13.3333C9.39333 13.3333 8.5 12.44 8.5 11.3333C8.5 10.2266 9.39333 9.33331 10.5 9.33331C11.6067 9.33331 12.5 10.2266 12.5 11.3333ZM24.5 11.3333C24.5 12.44 23.6067 13.3333 22.5 13.3333C21.3933 13.3333 20.5 12.44 20.5 11.3333C20.5 10.2266 21.3933 9.33331 22.5 9.33331C23.6067 9.33331 24.5 10.2266 24.5 11.3333ZM18.5 7.33331C18.5 8.43998 17.6067 9.33331 16.5 9.33331C15.3933 9.33331 14.5 8.43998 14.5 7.33331C14.5 6.22665 15.3933 5.33331 16.5 5.33331C17.6067 5.33331 18.5 6.22665 18.5 7.33331ZM18.5 14.6666C18.5 15.7733 17.6067 16.6666 16.5 16.6666C15.3933 16.6666 14.5 15.7733 14.5 14.6666C14.5 13.56 15.3933 12.6666 16.5 12.6666C17.6067 12.6666 18.5 13.56 18.5 14.6666Z" fill="#E24D48"/>
</svg>
