<svg width="32" height="32" viewBox="0 0 32 32" fill="none" xmlns="http://www.w3.org/2000/svg">
<path d="M27.28 14C25.86 13.6 23.5 13.14 20.82 12.66L13.18 4.18C12.7613 3.72021 12.2538 3.35009 11.688 3.092L9.3 2C9.12 2 9 2 9.1 2.22C9.2 2.44 12 8 13.68 11.4C10 10.82 6.68 10.34 5.22 10.14C4.97258 10.0949 4.73702 9.99963 4.52788 9.85997C4.31873 9.72031 4.14044 9.53926 4.004 9.328L2.56 7.18C2.33077 6.84412 1.99777 6.59262 1.612 6.464L0 6L1.22 12.52C1.354 13.2 1.856 13.738 2.508 13.918C5.16 14.68 12.14 16.6 17.56 17.76C29.56 20.32 31.16 20.32 31.8 19.58C32.44 18.84 30.46 14.82 27.28 14ZM0 26H32V28H0V26Z" fill="#E24D48"/>
</svg>
