<svg width="48" height="48" viewBox="0 0 48 48" fill="none" xmlns="http://www.w3.org/2000/svg">
<path d="M39.38 12.188H36.44C36.9426 10.5376 36.8289 8.76084 36.12 7.18799C35.564 6.10647 34.6925 5.21942 33.621 4.64438C32.5495 4.06933 31.3286 3.83345 30.12 3.96799C28.9084 3.89993 27.7008 4.15927 26.624 4.7188C25.5471 5.27833 24.6408 6.11742 24 7.14799C23.7301 6.72194 23.4149 6.32631 23.06 5.96799C22.3665 5.29278 21.5419 4.76694 20.6372 4.42294C19.7325 4.07895 18.7669 3.92411 17.8 3.96799C16.5916 3.85459 15.3768 4.10184 14.3089 4.67851C13.241 5.25518 12.3679 6.1354 11.8 7.20799C11.0996 8.7759 10.986 10.5433 11.48 12.188H8.58C7.36693 12.1933 6.20504 12.6775 5.34727 13.5353C4.48949 14.393 4.00526 15.5549 4 16.768V20.768C4.00317 21.9045 4.42513 23 5.18522 23.8449C5.9453 24.6899 6.99016 25.225 8.12 25.348V38.448C8.12523 39.9334 8.71628 41.3568 9.76478 42.4091C10.8133 43.4613 12.2346 44.0575 13.72 44.068H34.28C35.7654 44.0575 37.1867 43.4613 38.2352 42.4091C39.2837 41.3568 39.8748 39.9334 39.88 38.448V25.448C41.0098 25.325 42.0547 24.7899 42.8148 23.9449C43.5749 23.1 43.9968 22.0045 44 20.868V16.868C44.0107 16.2555 43.8989 15.6471 43.6712 15.0784C43.4436 14.5097 43.1046 13.9922 42.6743 13.5563C42.244 13.1204 41.7309 12.7748 41.1652 12.5398C40.5995 12.3048 39.9926 12.1852 39.38 12.188ZM30.12 6.96799C30.7478 6.87985 31.3878 6.97221 31.9651 7.23429C32.5423 7.49637 33.0331 7.91733 33.38 8.44799C33.6058 9.04128 33.7047 9.67533 33.6702 10.3092C33.6358 10.9431 33.4688 11.5627 33.18 12.128H25.46C25.9 6.96799 29.02 6.96799 30.08 6.96799H30.12ZM14.46 8.52799C14.8022 7.9689 15.3014 7.52287 15.8953 7.24547C16.4892 6.96807 17.1516 6.87157 17.8 6.96799C18.3674 6.93057 18.9366 7.00878 19.4729 7.19786C20.0092 7.38694 20.5015 7.68297 20.92 8.06799C21.8865 9.2236 22.4173 10.6815 22.42 12.188H14.64C14.343 11.6149 14.1699 10.9858 14.132 10.3414C14.0941 9.69705 14.1922 9.05193 14.42 8.44799L14.46 8.52799ZM6.96 20.868V16.868C6.96 16.4489 7.12646 16.0471 7.42277 15.7508C7.71908 15.4545 8.12096 15.288 8.54 15.288H22.54V22.448H8.54C8.32917 22.4533 8.1194 22.4164 7.92307 22.3394C7.72673 22.2624 7.5478 22.1469 7.39682 21.9996C7.24584 21.8524 7.12587 21.6764 7.04398 21.482C6.96209 21.2877 6.91993 21.0789 6.92 20.868H6.96ZM40.96 20.868C40.9626 21.0772 40.9237 21.2848 40.8455 21.4788C40.7673 21.6728 40.6513 21.8493 40.5044 21.9982C40.3574 22.147 40.1823 22.2652 39.9893 22.3458C39.7963 22.4265 39.5892 22.468 39.38 22.468H25.38V15.188H39.38C39.799 15.188 40.2009 15.3545 40.4972 15.6508C40.7935 15.9471 40.96 16.3489 40.96 16.768V20.868Z" fill="#E24D48"/>
</svg>
