<svg width="48" height="48" viewBox="0 0 48 48" fill="none" xmlns="http://www.w3.org/2000/svg">
<g clip-path="url(#clip0_1_226)">
<path fill-rule="evenodd" clip-rule="evenodd" d="M48 24C48 30.3652 45.4714 36.4697 40.9706 40.9706C36.4697 45.4714 30.3652 48 24 48C17.6348 48 11.5303 45.4714 7.02944 40.9706C2.52856 36.4697 0 30.3652 0 24C0 17.6348 2.52856 11.5303 7.02944 7.02944C11.5303 2.52856 17.6348 0 24 0C30.3652 0 36.4697 2.52856 40.9706 7.02944C45.4714 11.5303 48 17.6348 48 24ZM22.2857 15.8571C20.5808 15.8571 18.9456 16.5344 17.74 17.74C16.5344 18.9456 15.8571 20.5808 15.8571 22.2857C15.8571 23.9907 16.5344 25.6258 17.74 26.8314C18.9456 28.037 20.5808 28.7143 22.2857 28.7143C23.9907 28.7143 25.6258 28.037 26.8314 26.8314C28.037 25.6258 28.7143 23.9907 28.7143 22.2857C28.7143 20.5808 28.037 18.9456 26.8314 17.74C25.6258 16.5344 23.9907 15.8571 22.2857 15.8571ZM11.5714 22.2857C11.5714 20.6149 11.962 18.9672 12.7123 17.4743C13.4625 15.9814 14.5515 14.6847 15.8922 13.6877C17.2329 12.6906 18.7882 12.021 20.4339 11.7322C22.0796 11.4435 23.7699 11.5435 25.37 12.0245C26.9701 12.5055 28.4355 13.354 29.6492 14.5023C30.8629 15.6506 31.7912 17.0668 32.36 18.6378C32.9288 20.2088 33.1223 21.8911 32.9251 23.5502C32.7278 25.2093 32.1453 26.7993 31.224 28.1931L35.8011 32.7703C36.2031 33.1722 36.4289 33.7173 36.4289 34.2857C36.4289 34.8541 36.2031 35.3992 35.8011 35.8011C35.3992 36.2031 34.8541 36.4289 34.2857 36.4289C33.7173 36.4289 33.1722 36.2031 32.7703 35.8011L28.1931 31.224C26.5783 32.2912 24.7046 32.9011 22.7709 32.9887C20.8373 33.0764 18.9161 32.6386 17.2113 31.7219C15.5065 30.8051 14.082 29.4437 13.0889 27.7822C12.0959 26.1208 11.5715 24.2213 11.5714 22.2857Z" fill="#E24D48"/>
</g>
<defs>
<clipPath id="clip0_1_226">
<rect width="48" height="48" fill="white"/>
</clipPath>
</defs>
</svg>
