<svg width="14" height="16" viewBox="0 0 14 16" fill="none" xmlns="http://www.w3.org/2000/svg">
<path d="M1 15H4.692V9.92301C4.692 9.69434 4.76967 9.50267 4.925 9.348C5.07967 9.19267 5.27133 9.115 5.5 9.115H8.5C8.72867 9.115 8.92067 9.19267 9.076 9.348C9.23067 9.50267 9.308 9.69434 9.308 9.92301V15H13V6.308C13 6.20534 12.9777 6.11201 12.933 6.02801C12.8883 5.94401 12.8273 5.87067 12.75 5.808L7.366 1.75001C7.26333 1.66067 7.14133 1.61601 7 1.61601C6.85867 1.61601 6.737 1.66067 6.635 1.75001L1.25 5.808C1.17333 5.872 1.11233 5.94534 1.067 6.02801C1.02167 6.11067 0.999333 6.204 1 6.308V15ZM0 15V6.308C0 6.052 0.0573333 5.80967 0.172 5.58101C0.286667 5.35234 0.444667 5.16401 0.646 5.01601L6.031 0.938006C6.313 0.722673 6.635 0.615005 6.997 0.615005C7.359 0.615005 7.683 0.722673 7.969 0.938006L13.354 5.01501C13.556 5.16301 13.714 5.35167 13.828 5.58101C13.9427 5.80967 14 6.052 14 6.308V15C14 15.268 13.9003 15.5017 13.701 15.701C13.5017 15.9003 13.268 16 13 16H9.116C8.88667 16 8.69467 15.9227 8.54 15.768C8.38533 15.6127 8.308 15.4207 8.308 15.192V10.116H5.692V15.192C5.692 15.4213 5.61467 15.6133 5.46 15.768C5.30533 15.9227 5.11367 16 4.885 16H1C0.732 16 0.498333 15.9003 0.299 15.701C0.0996664 15.5017 0 15.268 0 15Z" fill="#878685"/>
</svg>
