<svg width="33" height="32" viewBox="0 0 33 32" fill="none" xmlns="http://www.w3.org/2000/svg">
<path fill-rule="evenodd" clip-rule="evenodd" d="M14.46 11.2933C14.2727 11.4808 14.1676 11.735 14.1676 12C14.1676 12.265 14.2727 12.5191 14.46 12.7066L16.7533 15H5.83334C5.56813 15 5.31377 15.1053 5.12624 15.2929C4.9387 15.4804 4.83334 15.7348 4.83334 16C4.83334 16.2652 4.9387 16.5195 5.12624 16.7071C5.31377 16.8946 5.56813 17 5.83334 17H16.7533L14.46 19.2933C14.3618 19.3849 14.283 19.4953 14.2283 19.6179C14.1736 19.7406 14.1443 19.873 14.1419 20.0073C14.1395 20.1415 14.1642 20.2749 14.2145 20.3994C14.2648 20.524 14.3397 20.6371 14.4346 20.732C14.5296 20.827 14.6427 20.9018 14.7672 20.9521C14.8917 21.0024 15.0251 21.0271 15.1594 21.0248C15.2936 21.0224 15.4261 20.993 15.5487 20.9383C15.6714 20.8837 15.7818 20.8049 15.8733 20.7066L19.8733 16.7066C20.0606 16.5191 20.1658 16.265 20.1658 16C20.1658 15.735 20.0606 15.4808 19.8733 15.2933L15.8733 11.2933C15.6858 11.106 15.4317 11.0009 15.1667 11.0009C14.9017 11.0009 14.6475 11.106 14.46 11.2933Z" fill="#E24D48"/>
<path opacity="0.5" d="M16.5 26.6667C19.329 26.6667 22.0421 25.5429 24.0425 23.5425C26.0429 21.5421 27.1667 18.829 27.1667 16C27.1667 13.1711 26.0429 10.458 24.0425 8.45757C22.0421 6.45718 19.329 5.33337 16.5 5.33337V26.6667Z" fill="#E24D48"/>
</svg>
