<svg width="263" height="52" viewBox="0 0 263 52" fill="none" xmlns="http://www.w3.org/2000/svg">
<g clip-path="url(#clip0_1_814)">
<path fill-rule="evenodd" clip-rule="evenodd" d="M33.2224 15.1909C31.0846 13.7624 28.5711 13 26 13V0C31.1423 0 36.1691 1.52487 40.4448 4.38179C44.7205 7.2387 48.0529 11.2994 50.0209 16.0502C51.9887 20.801 52.5036 26.0289 51.5004 31.0723C50.4972 36.1158 48.021 40.7486 44.3847 44.3847C40.7486 48.021 36.1158 50.4972 31.0723 51.5004C26.0289 52.5036 20.801 51.9887 16.0502 50.0209C11.2993 48.0529 7.2387 44.7205 4.38179 40.4448C1.52487 36.1691 0 31.1423 0 26H13C13 28.5711 13.7624 31.0846 15.1909 33.2224C16.6193 35.3603 18.6497 37.0265 21.0252 38.0104C23.4005 38.9944 26.0144 39.2518 28.5362 38.7501C31.0579 38.2486 33.3742 37.0105 35.1924 35.1924C37.0105 33.3742 38.2486 31.0579 38.7501 28.5362C39.2518 26.0144 38.9944 23.4005 38.0104 21.0252C37.0265 18.6497 35.3603 16.6193 33.2224 15.1909Z" fill="#EF4D48"/>
<path fill-rule="evenodd" clip-rule="evenodd" d="M13 6.87041e-06C13 1.70719 12.6637 3.39766 12.0104 4.9749C11.3571 6.55212 10.3996 7.98523 9.19238 9.1924C7.98523 10.3996 6.55212 11.3571 4.97488 12.0104C3.39765 12.6637 1.70718 13 5.68243e-07 13L0 26C3.41436 26 6.7953 25.3275 9.94978 24.0209C13.1043 22.7143 15.9705 20.7991 18.3847 18.3847C20.7991 15.9705 22.7142 13.1043 24.0209 9.94978C25.3275 6.7953 26 3.41436 26 0L13 6.87041e-06Z" fill="#EF4D48"/>
<path d="M163.305 18.7883H156.997V38.8243H163.305V18.7883Z" fill="#EF4D48"/>
<path d="M157.699 15.0366C158.358 15.6962 159.182 16.026 160.172 16.026C161.161 16.026 161.972 15.6962 162.604 15.0366C163.237 14.3495 163.553 13.5249 163.553 12.563C163.553 11.5736 163.237 10.749 162.604 10.0894C161.972 9.4298 161.161 9.1 160.172 9.1C159.182 9.1 158.358 9.4298 157.699 10.0894C157.066 10.749 156.75 11.5736 156.75 12.563C156.75 13.5249 157.066 14.3495 157.699 15.0366Z" fill="#EF4D48"/>
<path d="M66.5031 38.8242V9.71838H72.9756V33.135H85.8796V38.8242H66.5031Z" fill="#EF4D48"/>
<path fill-rule="evenodd" clip-rule="evenodd" d="M97.5356 39.2777C95.4743 39.2777 93.6055 38.8242 91.9288 37.9172C90.2798 36.9828 88.9743 35.7185 88.0123 34.1244C87.0505 32.5303 86.5695 30.7438 86.5695 28.765C86.5695 26.7861 87.0505 25.0134 88.0123 23.4468C88.9743 21.8802 90.2798 20.6434 91.9288 19.7365C93.5779 18.8019 95.4469 18.3347 97.5356 18.3347C99.6245 18.3347 101.493 18.7883 103.142 19.6951C104.791 20.6021 106.097 21.8527 107.059 23.4468C108.021 25.0134 108.502 26.7861 108.502 28.765C108.502 30.7438 108.021 32.5303 107.059 34.1244C106.097 35.7185 104.791 36.9828 103.142 37.9172C101.493 38.8242 99.6245 39.2777 97.5356 39.2777ZM97.5356 33.5473C98.4426 33.5473 99.2397 33.3549 99.9268 32.9701C100.614 32.5579 101.136 31.9944 101.493 31.2798C101.878 30.5378 102.071 29.6994 102.071 28.765C102.071 27.8305 101.878 27.0197 101.493 26.3327C101.109 25.6181 100.573 25.0684 99.8855 24.6836C99.2259 24.2713 98.4426 24.0652 97.5356 24.0652C96.6562 24.0652 95.8729 24.2713 95.1857 24.6836C94.4987 25.0684 93.9627 25.6181 93.5779 26.3327C93.1931 27.0473 93.0008 27.8717 93.0008 28.8062C93.0008 29.7132 93.1931 30.5378 93.5779 31.2798C93.9627 31.9944 94.4987 32.5579 95.1857 32.9701C95.8729 33.3549 96.6562 33.5473 97.5356 33.5473Z" fill="#EF4D48"/>
<path fill-rule="evenodd" clip-rule="evenodd" d="M113.497 46.6573C115.174 47.4268 117.112 47.8115 119.31 47.8115C121.454 47.8115 123.364 47.3855 125.041 46.5335C126.717 45.6815 128.036 44.4998 128.998 42.9882C129.96 41.4765 130.442 39.6901 130.442 37.6286V18.7883H124.257V20.1344C123.797 19.7473 123.275 19.4223 122.691 19.1593C121.619 18.6371 120.396 18.3759 119.022 18.3759C117.18 18.3759 115.545 18.8157 114.116 19.6951C112.686 20.5472 111.56 21.729 110.735 23.2406C109.911 24.7248 109.498 26.4013 109.498 28.2703C109.498 30.1118 109.911 31.7883 110.735 33.2999C111.56 34.8115 112.686 36.0072 114.116 36.8866C115.545 37.7661 117.18 38.2058 119.022 38.2058C120.368 38.2058 121.591 37.9448 122.691 37.4226C123.223 37.1696 123.704 36.8715 124.134 36.5282V37.7936C124.134 39.1953 123.68 40.2809 122.773 41.0505C121.894 41.8201 120.671 42.2048 119.104 42.2048C117.84 42.2048 116.754 41.9849 115.847 41.5452C114.968 41.1055 114.171 40.4595 113.456 39.6075L109.581 43.4828C110.543 44.857 111.848 45.9152 113.497 46.6573ZM122.485 32.0219C121.853 32.4067 121.097 32.5991 120.217 32.5991C119.338 32.5991 118.568 32.4067 117.909 32.0219C117.276 31.6371 116.782 31.1149 116.424 30.4552C116.067 29.7682 115.888 29.0398 115.888 28.2703C115.888 27.4457 116.067 26.7037 116.424 26.0441C116.782 25.3845 117.29 24.8623 117.95 24.4775C118.609 24.0927 119.365 23.9003 120.217 23.9003C121.097 23.9003 121.853 24.0927 122.485 24.4775C123.144 24.8623 123.639 25.3845 123.969 26.0441C124.326 26.7037 124.505 27.4457 124.505 28.2703C124.505 29.0948 124.326 29.8368 123.969 30.4965C123.639 31.1286 123.144 31.6371 122.485 32.0219Z" fill="#EF4D48"/>
<path fill-rule="evenodd" clip-rule="evenodd" d="M143.716 39.2777C141.654 39.2777 139.785 38.8242 138.109 37.9172C136.46 36.9828 135.154 35.7185 134.192 34.1244C133.23 32.5303 132.749 30.7438 132.749 28.765C132.749 26.7861 133.23 25.0134 134.192 23.4468C135.154 21.8802 136.46 20.6434 138.109 19.7365C139.758 18.8019 141.627 18.3347 143.716 18.3347C145.804 18.3347 147.673 18.7883 149.322 19.6951C150.972 20.6021 152.277 21.8527 153.239 23.4468C154.201 25.0134 154.682 26.7861 154.682 28.765C154.682 30.7438 154.201 32.5303 153.239 34.1244C152.277 35.7185 150.972 36.9828 149.322 37.9172C147.673 38.8242 145.804 39.2777 143.716 39.2777ZM143.716 33.5473C144.622 33.5473 145.419 33.3549 146.107 32.9701C146.793 32.5579 147.316 31.9944 147.673 31.2798C148.058 30.5378 148.251 29.6994 148.251 28.765C148.251 27.8305 148.058 27.0197 147.673 26.3327C147.289 25.6181 146.753 25.0684 146.065 24.6836C145.406 24.2713 144.622 24.0652 143.716 24.0652C142.836 24.0652 142.052 24.2713 141.366 24.6836C140.678 25.0684 140.143 25.6181 139.758 26.3327C139.373 27.0473 139.181 27.8717 139.181 28.8062C139.181 29.7132 139.373 30.5378 139.758 31.2798C140.143 31.9944 140.678 32.5579 141.366 32.9701C142.052 33.3549 142.836 33.5473 143.716 33.5473Z" fill="#EF4D48"/>
<path fill-rule="evenodd" clip-rule="evenodd" d="M178.465 39.2365C177.12 39.2365 175.882 38.9754 174.755 38.4532C174.162 38.1784 173.627 37.8503 173.148 37.4689V47.2757H166.923V18.7883H173.23V20.1711C173.688 19.7968 174.196 19.4732 174.755 19.2005C175.882 18.6507 177.12 18.3759 178.465 18.3759C180.362 18.3759 182.039 18.8295 183.495 19.7365C184.98 20.6434 186.134 21.8802 186.958 23.4468C187.811 25.0134 188.236 26.7999 188.236 28.8062C188.236 30.8126 187.811 32.5991 186.958 34.1657C186.134 35.7323 184.98 36.969 183.495 37.876C182.039 38.783 180.362 39.2365 178.465 39.2365ZM177.312 33.5473C178.218 33.5473 179.002 33.3411 179.661 32.9289C180.349 32.5167 180.885 31.9531 181.269 31.2386C181.654 30.524 181.847 29.7132 181.847 28.8062C181.847 27.8718 181.654 27.0473 181.269 26.3327C180.885 25.6181 180.349 25.0684 179.661 24.6836C179.002 24.2713 178.233 24.0652 177.353 24.0652C176.474 24.0652 175.69 24.2713 175.003 24.6836C174.343 25.0684 173.822 25.6181 173.437 26.3327C173.052 27.0473 172.86 27.8718 172.86 28.8062C172.86 29.7132 173.038 30.524 173.395 31.2386C173.78 31.9531 174.316 32.5167 175.003 32.9289C175.69 33.3411 176.459 33.5473 177.312 33.5473Z" fill="#333333"/>
<path d="M194.41 38.8655C195.564 39.1678 196.732 39.3189 197.913 39.3189C200.414 39.3189 202.393 38.7418 203.85 37.5874C205.334 36.4332 206.076 34.8803 206.076 32.9289C206.076 31.6646 205.843 30.6476 205.375 29.8782C204.909 29.0811 204.304 28.449 203.562 27.9817C202.819 27.5145 202.036 27.1434 201.211 26.8685C200.387 26.5937 199.603 26.3601 198.862 26.1677C198.12 25.9753 197.515 25.7555 197.047 25.5081C196.581 25.2607 196.347 24.9309 196.347 24.5187C196.347 24.1339 196.526 23.8453 196.882 23.6529C197.24 23.433 197.775 23.3232 198.49 23.3232C199.233 23.3232 199.988 23.4742 200.758 23.7766C201.555 24.0789 202.27 24.6012 202.901 25.3433L206.488 21.7153C205.582 20.5609 204.4 19.6951 202.943 19.1181C201.514 18.5134 199.948 18.2111 198.243 18.2111C196.622 18.2111 195.207 18.4859 193.998 19.0355C192.787 19.5853 191.853 20.3411 191.194 21.303C190.534 22.2374 190.204 23.3506 190.204 24.6424C190.204 25.8517 190.438 26.8549 190.905 27.6519C191.372 28.4214 191.977 29.0262 192.718 29.4658C193.461 29.9056 194.245 30.2492 195.069 30.4965C195.893 30.7438 196.677 30.9775 197.419 31.1974C198.16 31.3898 198.766 31.6234 199.233 31.8982C199.728 32.1456 199.975 32.5167 199.975 33.0113C199.975 33.3961 199.768 33.6984 199.356 33.9183C198.971 34.1381 198.409 34.2481 197.666 34.2481C196.594 34.2481 195.604 34.0557 194.698 33.6709C193.791 33.2587 193.007 32.6953 192.348 31.9807L188.761 35.6086C189.449 36.3506 190.273 37.0104 191.235 37.5874C192.224 38.1371 193.283 38.5631 194.41 38.8655Z" fill="#333333"/>
<path d="M217.578 39.2777C215.738 39.2777 214.102 38.9067 212.673 38.1646C211.271 37.395 210.172 36.3506 209.375 35.0314C208.577 33.6847 208.179 32.1456 208.179 30.414V18.7883H214.487V30.3316C214.487 31.0187 214.596 31.6096 214.817 32.1043C215.064 32.5991 215.422 32.9839 215.888 33.2587C216.356 33.5335 216.919 33.6709 217.578 33.6709C218.513 33.6709 219.255 33.3823 219.805 32.8051C220.355 32.2005 220.629 31.376 220.629 30.3316V18.7883H226.937V30.3728C226.937 32.1319 226.539 33.6847 225.741 35.0314C224.944 36.3506 223.846 37.395 222.443 38.1646C221.042 38.9067 219.42 39.2777 217.578 39.2777Z" fill="#333333"/>
<path d="M236.38 18.7883H230.073V38.8243H236.38V27.1159C236.38 26.4289 236.518 25.8517 236.792 25.3845C237.095 24.9172 237.494 24.5599 237.988 24.3126C238.484 24.0377 239.047 23.9003 239.678 23.9003C240.586 23.9003 241.341 24.1889 241.946 24.7661C242.579 25.3157 242.895 26.0991 242.895 27.1159V38.8243H249.202V27.1159C249.202 26.4289 249.34 25.8517 249.614 25.3845C249.917 24.9172 250.315 24.5599 250.81 24.3126C251.304 24.0377 251.868 23.9003 252.5 23.9003C253.408 23.9003 254.163 24.1889 254.767 24.7661C255.399 25.3157 255.715 26.0991 255.715 27.1159V38.8243H262.024V26.4151C262.024 24.7386 261.667 23.3094 260.952 22.1276C260.264 20.9182 259.316 19.9975 258.107 19.3655C256.925 18.7057 255.564 18.3759 254.025 18.3759C252.459 18.3759 251.043 18.7195 249.779 19.4067C248.958 19.8444 248.24 20.4094 247.625 21.1015C247.052 20.3775 246.355 19.7851 245.532 19.3241C244.434 18.6921 243.183 18.3759 241.782 18.3759C240.297 18.3759 238.965 18.6921 237.783 19.3241C237.268 19.5871 236.801 19.9021 236.38 20.2691V18.7883Z" fill="#333333"/>
</g>
<defs>
<clipPath id="clip0_1_814">
<rect width="262.6" height="52" fill="white"/>
</clipPath>
</defs>
</svg>
