<svg width="263" height="52" viewBox="0 0 263 52" fill="none" xmlns="http://www.w3.org/2000/svg">
<g clip-path="url(#clip0_1_827)">
<path fill-rule="evenodd" clip-rule="evenodd" d="M33.2224 15.1909C31.0846 13.7624 28.5711 13 26 13V0C31.1423 0 36.1691 1.52487 40.4448 4.38179C44.7205 7.2387 48.0529 11.2994 50.0209 16.0502C51.9887 20.801 52.5036 26.0289 51.5004 31.0723C50.4972 36.1158 48.021 40.7486 44.3847 44.3847C40.7486 48.021 36.1158 50.4972 31.0723 51.5004C26.0289 52.5036 20.801 51.9887 16.0502 50.0209C11.2993 48.0529 7.2387 44.7205 4.38179 40.4448C1.52487 36.1691 0 31.1423 0 26H13C13 28.5711 13.7624 31.0846 15.1909 33.2224C16.6193 35.3603 18.6497 37.0265 21.0252 38.0104C23.4005 38.9944 26.0144 39.2518 28.5362 38.7501C31.0579 38.2486 33.3742 37.0105 35.1924 35.1924C37.0105 33.3742 38.2486 31.0579 38.7501 28.5362C39.2518 26.0144 38.9944 23.4005 38.0104 21.0252C37.0265 18.6497 35.3603 16.6193 33.2224 15.1909Z" fill="white"/>
<path fill-rule="evenodd" clip-rule="evenodd" d="M13 6.87041e-06C13 1.70719 12.6637 3.39766 12.0104 4.9749C11.3571 6.55212 10.3996 7.98523 9.19238 9.1924C7.98523 10.3996 6.55212 11.3571 4.97488 12.0104C3.39765 12.6637 1.70718 13 5.68243e-07 13L0 26C3.41436 26 6.7953 25.3275 9.94978 24.0209C13.1043 22.7143 15.9705 20.7991 18.3847 18.3847C20.7991 15.9705 22.7142 13.1043 24.0209 9.94978C25.3275 6.7953 26 3.41436 26 0L13 6.87041e-06Z" fill="white"/>
<path d="M163.305 18.7883H156.997V38.8243H163.305V18.7883Z" fill="white"/>
<path d="M157.699 15.0367C158.358 15.6963 159.182 16.0261 160.172 16.0261C161.161 16.0261 161.972 15.6963 162.604 15.0367C163.237 14.3496 163.553 13.525 163.553 12.5631C163.553 11.5737 163.237 10.7491 162.604 10.0895C161.972 9.42989 161.161 9.1001 160.172 9.1001C159.182 9.1001 158.358 9.42989 157.699 10.0895C157.066 10.7491 156.75 11.5737 156.75 12.5631C156.75 13.525 157.066 14.3496 157.699 15.0367Z" fill="white"/>
<path d="M66.5031 38.8241V9.71826H72.9756V33.1349H85.8796V38.8241H66.5031Z" fill="white"/>
<path fill-rule="evenodd" clip-rule="evenodd" d="M97.5356 39.2777C95.4743 39.2777 93.6055 38.8243 91.9288 37.9173C90.2798 36.9828 88.9743 35.7186 88.0123 34.1244C87.0505 32.5303 86.5695 30.7439 86.5695 28.765C86.5695 26.7861 87.0505 25.0135 88.0123 23.4468C88.9743 21.8802 90.2798 20.6434 91.9288 19.7365C93.5779 18.8019 95.4469 18.3347 97.5356 18.3347C99.6245 18.3347 101.493 18.7883 103.142 19.6952C104.791 20.6022 106.097 21.8528 107.059 23.4468C108.021 25.0135 108.502 26.7861 108.502 28.765C108.502 30.7439 108.021 32.5303 107.059 34.1244C106.097 35.7186 104.791 36.9828 103.142 37.9173C101.493 38.8243 99.6245 39.2777 97.5356 39.2777ZM97.5356 33.5473C98.4426 33.5473 99.2397 33.3549 99.9268 32.9701C100.614 32.5579 101.136 31.9945 101.493 31.2799C101.878 30.5378 102.071 29.6994 102.071 28.765C102.071 27.8306 101.878 27.0198 101.493 26.3327C101.109 25.6181 100.573 25.0685 99.8855 24.6837C99.2259 24.2713 98.4426 24.0652 97.5356 24.0652C96.6562 24.0652 95.8729 24.2713 95.1857 24.6837C94.4987 25.0685 93.9627 25.6181 93.5779 26.3327C93.1931 27.0473 93.0008 27.8718 93.0008 28.8062C93.0008 29.7132 93.1931 30.5378 93.5779 31.2799C93.9627 31.9945 94.4987 32.5579 95.1857 32.9701C95.8729 33.3549 96.6562 33.5473 97.5356 33.5473Z" fill="white"/>
<path fill-rule="evenodd" clip-rule="evenodd" d="M113.497 46.6573C115.174 47.4268 117.112 47.8116 119.31 47.8116C121.454 47.8116 123.364 47.3856 125.041 46.5336C126.717 45.6816 128.036 44.4999 128.998 42.9882C129.96 41.4766 130.442 39.6901 130.442 37.6287V18.7883H124.257V20.1345C123.797 19.7473 123.275 19.4223 122.691 19.1594C121.619 18.6371 120.396 18.376 119.022 18.376C117.18 18.376 115.545 18.8158 114.116 19.6952C112.686 20.5472 111.56 21.7291 110.735 23.2407C109.911 24.7249 109.498 26.4014 109.498 28.2704C109.498 30.1119 109.911 31.7883 110.735 33.3C111.56 34.8116 112.686 36.0072 114.116 36.8867C115.545 37.7661 117.18 38.2059 119.022 38.2059C120.368 38.2059 121.591 37.9449 122.691 37.4227C123.223 37.1697 123.704 36.8716 124.134 36.5283V37.7937C124.134 39.1953 123.68 40.281 122.773 41.0506C121.894 41.8202 120.671 42.2048 119.104 42.2048C117.84 42.2048 116.754 41.985 115.847 41.5452C114.968 41.1056 114.171 40.4596 113.456 39.6076L109.581 43.4829C110.543 44.8571 111.848 45.9153 113.497 46.6573ZM122.485 32.0219C121.853 32.4067 121.097 32.5991 120.217 32.5991C119.338 32.5991 118.568 32.4067 117.909 32.0219C117.276 31.6371 116.782 31.1149 116.424 30.4553C116.067 29.7683 115.888 29.0399 115.888 28.2704C115.888 27.4458 116.067 26.7038 116.424 26.0442C116.782 25.3845 117.29 24.8623 117.95 24.4775C118.609 24.0927 119.365 23.9003 120.217 23.9003C121.097 23.9003 121.853 24.0927 122.485 24.4775C123.144 24.8623 123.639 25.3845 123.969 26.0442C124.326 26.7038 124.505 27.4458 124.505 28.2704C124.505 29.0949 124.326 29.8369 123.969 30.4965C123.639 31.1287 123.144 31.6371 122.485 32.0219Z" fill="white"/>
<path fill-rule="evenodd" clip-rule="evenodd" d="M143.716 39.2777C141.654 39.2777 139.785 38.8243 138.109 37.9173C136.46 36.9828 135.154 35.7186 134.192 34.1244C133.23 32.5303 132.749 30.7439 132.749 28.765C132.749 26.7861 133.23 25.0135 134.192 23.4468C135.154 21.8802 136.46 20.6434 138.109 19.7365C139.758 18.8019 141.627 18.3347 143.716 18.3347C145.804 18.3347 147.673 18.7883 149.322 19.6952C150.972 20.6022 152.277 21.8528 153.239 23.4468C154.201 25.0135 154.682 26.7861 154.682 28.765C154.682 30.7439 154.201 32.5303 153.239 34.1244C152.277 35.7186 150.972 36.9828 149.322 37.9173C147.673 38.8243 145.804 39.2777 143.716 39.2777ZM143.716 33.5473C144.622 33.5473 145.419 33.3549 146.107 32.9701C146.793 32.5579 147.316 31.9945 147.673 31.2799C148.058 30.5378 148.251 29.6994 148.251 28.765C148.251 27.8306 148.058 27.0198 147.673 26.3327C147.289 25.6181 146.753 25.0685 146.065 24.6837C145.406 24.2713 144.622 24.0652 143.716 24.0652C142.836 24.0652 142.052 24.2713 141.366 24.6837C140.678 25.0685 140.143 25.6181 139.758 26.3327C139.373 27.0473 139.181 27.8718 139.181 28.8062C139.181 29.7132 139.373 30.5378 139.758 31.2799C140.143 31.9945 140.678 32.5579 141.366 32.9701C142.052 33.3549 142.836 33.5473 143.716 33.5473Z" fill="white"/>
<path fill-rule="evenodd" clip-rule="evenodd" d="M178.465 39.2366C177.12 39.2366 175.882 38.9755 174.755 38.4533C174.162 38.1785 173.627 37.8504 173.148 37.4689V47.2758H166.923V18.7883H173.23V20.1711C173.688 19.7969 174.196 19.4733 174.755 19.2006C175.882 18.6508 177.12 18.376 178.465 18.376C180.362 18.376 182.039 18.8295 183.495 19.7366C184.98 20.6434 186.134 21.8803 186.958 23.4469C187.811 25.0135 188.236 26.8 188.236 28.8063C188.236 30.8127 187.811 32.5991 186.958 34.1658C186.134 35.7324 184.98 36.9691 183.495 37.8761C182.039 38.7831 180.362 39.2366 178.465 39.2366ZM177.312 33.5474C178.218 33.5474 179.002 33.3412 179.661 32.929C180.349 32.5167 180.885 31.9532 181.269 31.2387C181.654 30.5241 181.847 29.7133 181.847 28.8063C181.847 27.8718 181.654 27.0474 181.269 26.3328C180.885 25.6181 180.349 25.0685 179.661 24.6837C179.002 24.2713 178.233 24.0653 177.353 24.0653C176.474 24.0653 175.69 24.2713 175.003 24.6837C174.343 25.0685 173.822 25.6181 173.437 26.3328C173.052 27.0474 172.86 27.8718 172.86 28.8063C172.86 29.7133 173.038 30.5241 173.395 31.2387C173.78 31.9532 174.316 32.5167 175.003 32.929C175.69 33.3412 176.459 33.5474 177.312 33.5474Z" fill="white"/>
<path d="M194.41 38.8656C195.564 39.168 196.732 39.319 197.913 39.319C200.414 39.319 202.393 38.742 203.85 37.5876C205.334 36.4333 206.076 34.8804 206.076 32.929C206.076 31.6648 205.843 30.6478 205.375 29.8783C204.909 29.0813 204.304 28.4491 203.562 27.9819C202.819 27.5146 202.036 27.1435 201.211 26.8687C200.387 26.5938 199.603 26.3602 198.862 26.1678C198.12 25.9754 197.515 25.7556 197.047 25.5082C196.581 25.2608 196.347 24.931 196.347 24.5188C196.347 24.134 196.526 23.8454 196.882 23.653C197.24 23.4332 197.775 23.3233 198.49 23.3233C199.233 23.3233 199.988 23.4744 200.758 23.7767C201.555 24.079 202.27 24.6013 202.901 25.3434L206.488 21.7155C205.582 20.5611 204.4 19.6953 202.943 19.1182C201.514 18.5136 199.948 18.2112 198.243 18.2112C196.622 18.2112 195.207 18.486 193.998 19.0356C192.787 19.5854 191.853 20.3412 191.194 21.3031C190.534 22.2375 190.204 23.3507 190.204 24.6425C190.204 25.8518 190.438 26.855 190.905 27.652C191.372 28.4215 191.977 29.0263 192.718 29.4659C193.461 29.9057 194.245 30.2493 195.069 30.4966C195.893 30.744 196.677 30.9776 197.419 31.1975C198.16 31.3899 198.766 31.6235 199.233 31.8984C199.728 32.1458 199.975 32.5168 199.975 33.0114C199.975 33.3962 199.768 33.6985 199.356 33.9184C198.971 34.1383 198.409 34.2482 197.666 34.2482C196.594 34.2482 195.604 34.0558 194.698 33.671C193.791 33.2588 193.007 32.6954 192.348 31.9808L188.761 35.6087C189.449 36.3507 190.273 37.0105 191.235 37.5876C192.224 38.1372 193.283 38.5632 194.41 38.8656Z" fill="white"/>
<path d="M217.578 39.2778C215.738 39.2778 214.102 38.9067 212.673 38.1647C211.271 37.3951 210.172 36.3507 209.375 35.0314C208.577 33.6848 208.179 32.1457 208.179 30.4141V18.7883H214.487V30.3317C214.487 31.0187 214.596 31.6097 214.817 32.1044C215.064 32.5991 215.422 32.9839 215.888 33.2588C216.356 33.5336 216.919 33.671 217.578 33.671C218.513 33.671 219.255 33.3824 219.805 32.8052C220.355 32.2006 220.629 31.3761 220.629 30.3317V18.7883H226.937V30.3729C226.937 32.1319 226.539 33.6848 225.741 35.0314C224.944 36.3507 223.846 37.3951 222.443 38.1647C221.042 38.9067 219.42 39.2778 217.578 39.2778Z" fill="white"/>
<path d="M236.38 18.7883H230.073V38.8243H236.38V27.116C236.38 26.429 236.518 25.8518 236.792 25.3845C237.095 24.9173 237.494 24.5599 237.988 24.3127C238.484 24.0377 239.047 23.9003 239.678 23.9003C240.586 23.9003 241.341 24.1889 241.946 24.7661C242.579 25.3158 242.895 26.0991 242.895 27.116V38.8243H249.202V27.116C249.202 26.429 249.34 25.8518 249.614 25.3845C249.917 24.9173 250.315 24.5599 250.81 24.3127C251.304 24.0377 251.868 23.9003 252.5 23.9003C253.408 23.9003 254.163 24.1889 254.767 24.7661C255.399 25.3158 255.715 26.0991 255.715 27.116V38.8243H262.024V26.4152C262.024 24.7387 261.667 23.3095 260.952 22.1276C260.264 20.9183 259.316 19.9976 258.107 19.3655C256.925 18.7058 255.564 18.376 254.025 18.376C252.459 18.376 251.043 18.7196 249.779 19.4067C248.958 19.8445 248.24 20.4094 247.625 21.1016C247.052 20.3776 246.355 19.7852 245.532 19.3242C244.434 18.6921 243.183 18.376 241.782 18.376C240.297 18.376 238.965 18.6921 237.783 19.3242C237.268 19.5872 236.801 19.9022 236.38 20.2692V18.7883Z" fill="white"/>
</g>
<defs>
<clipPath id="clip0_1_827">
<rect width="262.6" height="52" fill="white"/>
</clipPath>
</defs>
</svg>
