<svg width="33" height="32" viewBox="0 0 33 32" fill="none" xmlns="http://www.w3.org/2000/svg">
<path fill-rule="evenodd" clip-rule="evenodd" d="M16.526 4C13.5147 4 10.7714 4.99467 9.14803 5.80733C9.00136 5.88067 8.86447 5.95222 8.73736 6.022C8.48536 6.15933 8.2707 6.28733 8.10003 6.4L9.9467 9.11867L10.816 9.46467C14.2134 11.1787 18.7694 11.1787 22.1674 9.46467L23.154 8.95267L24.9 6.4C24.538 6.16474 24.1619 5.95168 23.774 5.762C22.1587 4.958 19.4807 4 16.5267 4M12.232 7.07733C11.5783 6.9543 10.9324 6.79223 10.298 6.592C11.8187 5.91667 14.0847 5.2 16.5267 5.2C18.218 5.2 19.8174 5.544 21.14 5.98C19.59 6.198 17.936 6.568 16.36 7.02333C15.12 7.382 13.6707 7.34333 12.232 7.07733ZM22.872 10.4533L22.708 10.536C18.9707 12.4213 14.0134 12.4213 10.276 10.536L10.1207 10.4573C4.50536 16.618 0.218696 27.998 16.526 27.998C32.8334 27.998 28.4427 16.4067 22.872 10.4533ZM15.8334 16C15.4797 16 15.1406 16.1405 14.8906 16.3905C14.6405 16.6406 14.5 16.9797 14.5 17.3333C14.5 17.687 14.6405 18.0261 14.8906 18.2761C15.1406 18.5262 15.4797 18.6667 15.8334 18.6667V16ZM17.1667 14.6667V14H15.8334V14.6667C15.1261 14.6667 14.4478 14.9476 13.9477 15.4477C13.4476 15.9478 13.1667 16.6261 13.1667 17.3333C13.1667 18.0406 13.4476 18.7189 13.9477 19.219C14.4478 19.719 15.1261 20 15.8334 20V22.6667C15.2534 22.6667 14.7594 22.2967 14.5754 21.778C14.5481 21.6931 14.504 21.6146 14.4458 21.5471C14.3877 21.4795 14.3165 21.4244 14.2367 21.3848C14.1568 21.3452 14.0698 21.3221 13.9808 21.3167C13.8918 21.3113 13.8027 21.3239 13.7186 21.3536C13.6346 21.3833 13.5574 21.4295 13.4915 21.4896C13.4256 21.5497 13.3725 21.6223 13.3352 21.7033C13.2979 21.7843 13.2772 21.8719 13.2744 21.961C13.2716 22.0501 13.2866 22.1388 13.3187 22.222C13.5025 22.742 13.843 23.1923 14.2934 23.5107C14.7438 23.8291 15.2818 24.0001 15.8334 24V24.6667H17.1667V24C17.8739 24 18.5522 23.719 19.0523 23.219C19.5524 22.7189 19.8334 22.0406 19.8334 21.3333C19.8334 20.6261 19.5524 19.9478 19.0523 19.4477C18.5522 18.9476 17.8739 18.6667 17.1667 18.6667V16C17.7467 16 18.2407 16.37 18.4247 16.8887C18.452 16.9735 18.496 17.052 18.5542 17.1196C18.6124 17.1871 18.6835 17.2423 18.7634 17.2819C18.8433 17.3215 18.9303 17.3446 19.0192 17.35C19.1082 17.3553 19.1974 17.3428 19.2814 17.3131C19.3655 17.2834 19.4427 17.2371 19.5086 17.1771C19.5744 17.117 19.6276 17.0443 19.6649 16.9634C19.7022 16.8824 19.7228 16.7948 19.7257 16.7057C19.7285 16.6166 19.7134 16.5278 19.6814 16.4447C19.4976 15.9246 19.157 15.4744 18.7066 15.156C18.2563 14.8375 17.7183 14.6666 17.1667 14.6667ZM17.1667 20V22.6667C17.5203 22.6667 17.8595 22.5262 18.1095 22.2761C18.3596 22.0261 18.5 21.687 18.5 21.3333C18.5 20.9797 18.3596 20.6406 18.1095 20.3905C17.8595 20.1405 17.5203 20 17.1667 20Z" fill="#E24D48"/>
</svg>
