<svg width="24" height="24" viewBox="0 0 24 24" fill="none" xmlns="http://www.w3.org/2000/svg">
<path d="M2 12C2 17.523 6.477 22 12 22C17.523 22 22 17.523 22 12C22 6.477 17.523 2 12 2C6.477 2 2 6.477 2 12ZM20 12C20 14.1217 19.1571 16.1566 17.6569 17.6569C16.1566 19.1571 14.1217 20 12 20C9.87827 20 7.84344 19.1571 6.34315 17.6569C4.84285 16.1566 4 14.1217 4 12C4 9.87827 4.84285 7.84344 6.34315 6.34315C7.84344 4.84285 9.87827 4 12 4C14.1217 4 16.1566 4.84285 17.6569 6.34315C19.1571 7.84344 20 9.87827 20 12ZM18 12C17.9999 12.9867 17.7564 13.9581 17.2913 14.8282C16.8261 15.6983 16.1535 16.4402 15.3331 16.9883C14.5127 17.5364 13.5698 17.8737 12.5878 17.9704C11.6059 18.0671 10.6153 17.9201 9.7038 17.5425C8.79226 17.1649 7.9879 16.5684 7.36197 15.8057C6.73604 15.043 6.30785 14.1377 6.11533 13.17C5.92281 12.2023 5.9719 11.2021 6.25826 10.2579C6.54461 9.31373 7.05939 8.45473 7.757 7.757L12 12V6C13.5913 6 15.1174 6.63214 16.2426 7.75736C17.3679 8.88258 18 10.4087 18 12Z" fill="#E24D48"/>
</svg>
