<svg width="33" height="32" viewBox="0 0 33 32" fill="none" xmlns="http://www.w3.org/2000/svg">
<path d="M20.5 18.6667C16.94 18.6667 9.83331 20.44 9.83331 24V26.6667H31.1666V24C31.1666 20.44 24.06 18.6667 20.5 18.6667ZM8.49998 13.3334V9.33337H5.83331V13.3334H1.83331V16H5.83331V20H8.49998V16H12.5V13.3334M20.5 16C21.9145 16 23.271 15.4381 24.2712 14.4379C25.2714 13.4377 25.8333 12.0812 25.8333 10.6667C25.8333 9.25222 25.2714 7.89566 24.2712 6.89547C23.271 5.89528 21.9145 5.33337 20.5 5.33337C19.0855 5.33337 17.7289 5.89528 16.7287 6.89547C15.7285 7.89566 15.1666 9.25222 15.1666 10.6667C15.1666 12.0812 15.7285 13.4377 16.7287 14.4379C17.7289 15.4381 19.0855 16 20.5 16Z" fill="#E24D48"/>
</svg>
