<svg width="48" height="48" viewBox="0 0 48 48" fill="none" xmlns="http://www.w3.org/2000/svg">
<path fill-rule="evenodd" clip-rule="evenodd" d="M36.33 5.52995L36.84 5.59395C38.188 5.77995 39.972 6.02995 40.982 7.04195C41.81 7.86795 42.128 9.21195 42.318 10.4119L42.43 11.1839C42.682 13.0039 42.748 15.3879 42.318 18.0359C41.47 23.2619 38.688 29.4979 31.702 34.3259C31.664 34.7019 31.662 35.0819 31.67 35.4619L31.69 36.0299C31.722 36.9039 31.754 37.7779 31.51 38.6259C31.13 39.9459 29.776 40.8159 28.51 41.4399L27.89 41.7339L27.09 42.0859C25.594 42.7219 23.574 43.3739 22.308 42.1059C21.548 41.3479 21.236 40.2359 20.982 39.1299L20.888 38.7159C20.7805 38.1936 20.647 37.677 20.488 37.1679C20.388 36.8746 20.28 36.5779 20.164 36.2779C20.0363 36.4347 19.9008 36.5849 19.758 36.7279C19.068 37.4179 18.038 37.8999 17.19 38.2379C16.264 38.6039 15.216 38.9239 14.246 39.1879L13.748 39.3199L12.794 39.5579L11.93 39.7579L10.896 39.9779L10.25 40.1039C9.92779 40.1636 9.59594 40.144 9.28303 40.0468C8.97012 39.9496 8.68555 39.7778 8.45386 39.5461C8.22217 39.3144 8.05032 39.0298 7.95313 38.7169C7.85594 38.404 7.83632 38.0721 7.89597 37.7499L8.06797 36.8879L8.37597 35.4919L8.62397 34.4719L8.81197 33.7519C9.07597 32.7839 9.39597 31.7359 9.76397 30.8119C10.1 29.9619 10.582 28.9319 11.272 28.2419L11.432 28.0879L11.304 28.0359C10.9621 27.9061 10.6159 27.788 10.266 27.6819L9.71197 27.5119C8.32397 27.0919 6.83997 26.6399 5.91797 25.7159C4.79797 24.5979 5.17597 22.8959 5.71597 21.4799L5.93597 20.9319L6.28997 20.1319L6.58397 19.5119C7.20797 18.2479 8.07797 16.8939 9.39797 16.5139C10.098 16.3139 10.826 16.3019 11.558 16.3219L11.998 16.3359C12.57 16.3559 13.14 16.3779 13.698 16.3239C18.526 9.33595 24.762 6.55395 29.988 5.70595C32.0844 5.3621 34.2177 5.30289 36.33 5.52995ZM16.706 30.8799C16.3913 30.6467 16.0151 30.511 15.624 30.4897C15.2329 30.4684 14.8441 30.5623 14.506 30.7599L14.286 30.9079L14.1 31.0739L13.85 31.3899C13.33 32.1419 13.034 33.1819 12.804 34.1539L12.588 35.0899L12.486 35.5159L12.868 35.4239L13.704 35.2319C14.86 34.9619 16.142 34.6119 16.93 33.9019C17.2726 33.5595 17.4793 33.1043 17.5117 32.621C17.544 32.1377 17.3999 31.659 17.106 31.2739L16.942 31.0859L16.894 31.0399L16.706 30.8799ZM31.072 16.9319C30.7006 16.5604 30.2597 16.2657 29.7744 16.0646C29.2891 15.8635 28.769 15.7599 28.2437 15.7598C27.7184 15.7598 27.1982 15.8631 26.7129 16.0641C26.2275 16.265 25.7865 16.5596 25.415 16.9309C25.0435 17.3023 24.7487 17.7432 24.5476 18.2285C24.3465 18.7138 24.243 19.2339 24.2429 19.7592C24.2428 20.2845 24.3462 20.8047 24.5471 21.2901C24.748 21.7754 25.0426 22.2164 25.414 22.5879C26.164 23.3382 27.1814 23.7599 28.2423 23.76C29.3032 23.7602 30.3207 23.339 31.071 22.5889C31.8213 21.8389 32.2429 20.8215 32.2431 19.7607C32.2433 18.6998 31.822 17.6822 31.072 16.9319Z" fill="#E24D48"/>
</svg>
