<svg width="18" height="19" viewBox="0 0 18 19" fill="none" xmlns="http://www.w3.org/2000/svg">
<path d="M9.16718 8.80627C9.1052 8.87757 9.07242 8.96963 9.07538 9.06406C9.07834 9.15848 9.11683 9.24831 9.18316 9.31558C9.24948 9.38285 9.33875 9.42261 9.43313 9.42691C9.5275 9.43121 9.62002 9.39974 9.69218 9.33877L14.9422 4.08877V6.77377C14.9441 6.87263 14.9842 6.9669 15.0541 7.03681C15.1241 7.10673 15.2183 7.14685 15.3172 7.14877C15.4166 7.14877 15.512 7.10927 15.5823 7.03894C15.6527 6.96861 15.6922 6.87323 15.6922 6.77377V3.18127C15.6922 3.08182 15.6527 2.98644 15.5823 2.91611C15.512 2.84578 15.4166 2.80627 15.3172 2.80627H11.7247C11.6252 2.80627 11.5298 2.84578 11.4595 2.91611C11.3892 2.98644 11.3497 3.08182 11.3497 3.18127C11.3497 3.28073 11.3892 3.37611 11.4595 3.44644C11.5298 3.51677 11.6252 3.55627 11.7247 3.55627H14.4097L9.16718 8.80627Z" fill="#E24D48"/>
<path d="M13.4069 16.1945H4.59292C3.98642 16.1939 3.40493 15.9527 2.97607 15.5238C2.54721 15.095 2.30602 14.5135 2.30542 13.907V5.09298C2.30602 4.48648 2.54721 3.90499 2.97607 3.47613C3.40493 3.04727 3.98642 2.80608 4.59292 2.80548H9.11392C9.21338 2.80548 9.30876 2.84499 9.37908 2.91532C9.44941 2.98564 9.48892 3.08102 9.48892 3.18048C9.48892 3.27994 9.44941 3.37532 9.37908 3.44565C9.30876 3.51597 9.21338 3.55548 9.11392 3.55548H4.59292C4.18533 3.55608 3.79461 3.71825 3.5064 4.00646C3.21819 4.29467 3.05602 4.68539 3.05542 5.09298V13.907C3.05602 14.3146 3.21819 14.7053 3.5064 14.9935C3.79461 15.2817 4.18533 15.4439 4.59292 15.4445H13.4069C13.8145 15.4439 14.2052 15.2817 14.4934 14.9935C14.7816 14.7053 14.9438 14.3146 14.9444 13.907V9.38673C14.9444 9.28727 14.9839 9.19189 15.0543 9.12157C15.1246 9.05124 15.22 9.01173 15.3194 9.01173C15.4189 9.01173 15.5143 9.05124 15.5846 9.12157C15.6549 9.19189 15.6944 9.28727 15.6944 9.38673V13.907C15.6938 14.5135 15.4526 15.095 15.0238 15.5238C14.5949 15.9527 14.0134 16.1939 13.4069 16.1945Z" fill="#E24D48"/>
</svg>
